<svg width="294" height="90" viewBox="0 0 294 90" fill="none" xmlns="http://www.w3.org/2000/svg">
<g clip-path="url(#clip0_1945_7017)">
<path d="M100.93 44.4367C100.845 42.3431 101.176 40.2535 101.905 38.2884C102.635 36.3232 103.747 34.5215 105.178 32.987C106.61 31.4526 108.332 30.2158 110.245 29.3482C112.159 28.4805 114.225 27.9991 116.326 27.9316H116.979C125.099 27.9316 129.892 32.6927 131.309 38.2632L126.262 39.9454C125.808 37.8696 124.621 36.0255 122.917 34.7494C121.213 33.4734 119.106 32.8504 116.979 32.9942C111.725 32.9942 106.455 36.819 106.455 44.5319C106.455 52.2448 111.597 55.9267 117.043 55.9267C119.18 55.9849 121.275 55.327 122.992 54.0581C124.71 52.7893 125.951 50.9829 126.516 48.9279L131.468 50.515C130.613 53.6496 128.712 56.4003 126.078 58.3131C123.444 60.2259 120.235 61.1867 116.979 61.0369C112.797 61.1134 108.755 59.5315 105.743 56.6389C102.73 53.7462 100.993 49.7797 100.914 45.6111C100.898 45.2302 100.914 44.8334 100.93 44.4367Z" fill="white"/>
<path d="M141.292 60.3069H136.07V27.8364H141.292V40.5326C142.05 39.6363 143.004 38.9244 144.08 38.4514C145.156 37.9783 146.326 37.7565 147.502 37.8029C152.899 37.8029 155.463 41.6594 155.463 46.4681V60.3069H150.431V47.3885C150.582 46.2873 150.293 45.1711 149.625 44.2805C148.958 43.3899 147.967 42.7963 146.865 42.6275C146.552 42.5955 146.238 42.5955 145.925 42.6275C144.718 42.6275 143.559 43.1057 142.705 43.9569C141.851 44.8081 141.372 45.9626 141.372 47.1663C141.364 47.2985 141.364 47.431 141.372 47.5631L141.292 60.3069Z" fill="white"/>
<path d="M167.181 47.8012L172.786 46.9284C174.059 46.7696 174.378 46.119 174.378 45.3413C174.378 43.5004 173.136 42.0245 170.238 42.0245C169.144 41.9363 168.059 42.2817 167.218 42.9858C166.377 43.6899 165.849 44.696 165.748 45.7857V46.0238L160.972 44.9604C161.37 41.1833 164.809 37.8188 170.19 37.8188C176.941 37.8188 179.505 41.6277 179.505 46.0714V56.9107C179.499 58.0852 179.59 59.2582 179.775 60.418H174.999C174.827 59.4974 174.757 58.5607 174.792 57.6249C174.067 58.7371 173.062 59.6403 171.877 60.2446C170.693 60.8489 169.37 61.133 168.041 61.0687C166.226 61.2181 164.425 60.6437 163.034 59.4715C161.643 58.2992 160.775 56.6249 160.621 54.8159C160.621 54.7048 160.621 54.5937 160.621 54.4984C160.542 50.4833 163.424 48.3249 167.181 47.8012ZM174.41 51.3085V50.3087L168.694 51.1657C167.918 51.1902 167.181 51.5127 166.638 52.0658C166.095 52.6188 165.788 53.3597 165.78 54.1334C165.786 54.5169 165.869 54.8952 166.023 55.2465C166.178 55.5977 166.401 55.9148 166.679 56.1793C166.958 56.4437 167.287 56.6502 167.646 56.7866C168.006 56.9231 168.389 56.9869 168.773 56.9742H169.012C169.664 57.0422 170.323 56.981 170.951 56.7941C171.578 56.6072 172.163 56.2984 172.671 55.8853C173.178 55.4723 173.599 54.9632 173.908 54.3875C174.218 53.8117 174.41 53.1806 174.473 52.5305C174.496 52.1215 174.469 51.7112 174.394 51.3085H174.41Z" fill="white"/>
<path d="M188.389 27.3921C188.838 27.3858 189.284 27.468 189.701 27.6338C190.117 27.7997 190.497 28.046 190.818 28.3587C191.139 28.6713 191.395 29.0441 191.571 29.4556C191.747 29.8671 191.84 30.3092 191.844 30.7566C191.844 31.4262 191.646 32.0809 191.273 32.6384C190.901 33.1958 190.372 33.6311 189.752 33.8895C189.132 34.1479 188.449 34.2178 187.79 34.0906C187.13 33.9634 186.523 33.6446 186.045 33.1744C185.566 32.7042 185.238 32.1035 185.101 31.4479C184.964 30.7922 185.025 30.1109 185.276 29.4895C185.526 28.8682 185.956 28.3346 186.51 27.9557C187.064 27.5769 187.718 27.3697 188.389 27.3604V27.3921ZM185.842 60.4021V38.4695H191.064V60.3069L185.842 60.4021Z" fill="white"/>
<path d="M202.958 60.307H197.751V38.4695H202.831V41.3738C203.493 40.2586 204.444 39.3415 205.584 38.7188C206.724 38.0961 208.011 37.7908 209.311 37.8347C214.661 37.8347 217.272 41.6912 217.272 46.4999V60.307H212.065V47.3886C212.065 44.7065 210.839 42.5323 207.559 42.5323C206.953 42.5365 206.353 42.6596 205.795 42.8948C205.236 43.1299 204.73 43.4724 204.304 43.9027C203.878 44.333 203.541 44.8427 203.313 45.4027C203.085 45.9627 202.97 46.562 202.974 47.1664C202.974 47.341 202.974 47.5156 202.974 47.6901L202.958 60.307Z" fill="white"/>
<path d="M223.577 60.3069V27.8364H228.799V60.3069H223.577Z" fill="white"/>
<path d="M238.114 27.3919C238.786 27.3887 239.444 27.5847 240.004 27.955C240.564 28.3252 241.001 28.853 241.26 29.4713C241.519 30.0896 241.587 30.7706 241.457 31.4278C241.326 32.085 241.003 32.6888 240.528 33.1625C240.053 33.6362 239.447 33.9584 238.787 34.0884C238.128 34.2183 237.445 34.15 236.825 33.8922C236.204 33.6344 235.675 33.1987 235.303 32.6403C234.932 32.082 234.735 31.4263 234.738 30.7564C234.747 29.8666 235.105 29.0156 235.736 28.3865C236.367 27.7573 237.221 27.4002 238.114 27.3919ZM235.55 60.4019V38.4693H240.725V60.3067L235.55 60.4019Z" fill="white"/>
<path d="M252.698 60.3069H247.476V38.4695H252.555V41.3737C253.218 40.2597 254.17 39.3435 255.31 38.721C256.45 38.0985 257.736 37.7924 259.035 37.8347C264.385 37.8347 266.996 41.6911 266.996 46.4998V60.3069H261.774V47.3885C261.925 46.2873 261.635 45.1711 260.968 44.2805C260.301 43.3899 259.309 42.7963 258.207 42.6275C257.89 42.5957 257.57 42.5957 257.252 42.6275C256.036 42.64 254.873 43.1304 254.018 43.9922C253.162 44.8539 252.682 46.0174 252.682 47.2298C252.666 47.4146 252.666 47.6005 252.682 47.7853L252.698 60.3069Z" fill="white"/>
<path d="M284.813 47.6901L294 60.3862H287.631L281.262 51.3878L278.572 54.2127V60.3069H273.397V27.8364H278.572V47.2933L286.978 38.4695H293.905L284.813 47.6901Z" fill="white"/>
<path d="M39.1045 19.0443L61.6819 31.9626V57.9263L39.1682 70.924L16.6067 58.0374V32.0896L39.1045 19.0443ZM39.1045 0L30.825 4.76107L8.27945 17.8064L0 22.5675V67.5913L8.27945 72.3523L30.8569 85.2707L39.1363 90.0317L47.4158 85.2707L69.9136 72.2571L78.193 67.496V22.4087L69.9136 17.6477L47.3521 4.76107L39.0726 0H39.1045Z" fill="white"/>
</g>
<defs>
<clipPath id="clip0_1945_7017">
<rect width="294" height="90" fill="white"/>
</clipPath>
</defs>
</svg>
