<svg width="177" height="52" viewBox="0 0 177 52" fill="none" xmlns="http://www.w3.org/2000/svg">
<path d="M11.6679 2.99763L55.5946 33.1141L44.731 49.2395L0.804284 18.8859L11.6679 2.99763Z" fill="url(#paint0_linear_1957_5544)"/>
<path d="M55.5946 33.1141C51.816 38.5683 39.063 36.4341 27.0186 27.8971C14.738 19.5973 8.1254 8.4518 11.6679 2.99763C15.4465 -2.45654 28.1994 -0.322302 40.2439 8.21466C52.5245 16.2773 59.1371 27.66 55.5946 33.1141Z" fill="url(#paint1_linear_1957_5544)"/>
<path d="M44.731 49.0024C40.9524 54.4565 28.1994 52.3223 16.155 43.7853C4.1106 35.2484 -2.73819 24.34 1.04045 18.6487C4.81909 13.1946 17.572 15.3288 29.6164 23.8658C41.6609 32.4027 48.2735 43.5482 44.731 49.0024Z" fill="url(#paint2_linear_1957_5544)"/>
<path fill-rule="evenodd" clip-rule="evenodd" d="M53.9414 32.1656C50.6351 36.9083 39.063 34.537 27.9633 26.7114C16.6273 18.8859 10.0147 8.92607 13.321 4.18332C16.6273 -0.55944 28.1994 1.81194 39.2992 9.63749C50.399 17.463 57.0116 27.4228 53.9414 32.1656ZM43.5502 25.0514C41.897 27.4228 36.2291 26.2371 30.5611 22.4429C25.1293 18.6487 21.823 13.6688 23.4761 11.2975C25.1293 8.92607 30.7973 10.1118 36.4652 13.906C41.897 17.7002 45.2033 22.6801 43.5502 25.0514Z" fill="white"/>
<path d="M10.7232 8.4518C10.7232 8.21466 10.4871 7.97752 10.2509 8.21466C10.0147 8.4518 9.77856 8.4518 9.77856 8.68893C10.0147 9.40035 10.2509 9.87462 10.2509 10.3489C10.2509 10.586 10.4871 10.8232 10.7232 10.586C10.9594 10.586 11.1955 10.3489 10.9594 10.1118C10.9594 9.63749 10.9594 9.16321 10.7232 8.4518Z" fill="white"/>
<path d="M11.904 12.246C11.904 12.0089 11.6679 11.7717 11.4317 12.0089C11.1956 12.246 11.1956 12.246 11.1956 12.4831C13.7934 18.4116 19.2252 24.8143 26.3101 29.5571C26.5463 29.7942 26.7824 29.5571 27.0186 29.5571C27.2548 29.3199 27.0186 29.0828 27.0186 28.8456C19.6975 24.1029 14.5019 17.9373 11.904 12.246Z" fill="white"/>
<path d="M40.48 35.4855C40.2439 35.4855 40.0077 35.4855 40.0077 35.7226C40.0077 35.9598 40.0077 36.1969 40.2439 36.1969C40.9524 36.4341 41.897 36.6712 42.6055 36.9083C42.8417 36.9083 43.0778 36.9083 43.0778 36.6712C43.0778 36.4341 43.0778 36.1969 42.8417 36.1969C42.1332 35.9598 41.1885 35.7226 40.48 35.4855Z" fill="white"/>
<path d="M44.731 36.4341C44.4948 36.4341 44.2587 36.6712 44.2587 36.9083C44.2587 37.1455 44.4948 37.3826 44.731 37.3826C46.6203 37.6197 48.7458 37.8569 50.399 37.6197C50.6351 37.6197 50.8713 37.3826 50.8713 37.1455C50.8713 36.9083 50.6351 36.6712 50.399 36.6712C48.5096 36.9083 46.6203 36.6712 44.731 36.4341Z" fill="white"/>
<path d="M68.4647 35.896C69.757 37.0206 71.48 38.1885 73.1169 38.8806C73.8923 39.2266 76.1754 40.1782 79.3199 40.1782C83.1107 40.1782 85.9106 39.0536 87.7629 37.3667C90.3906 34.9877 90.6921 32.2195 90.6921 30.2298C90.6921 27.9806 90.1752 26.2504 88.7968 24.6933C87.2891 22.9631 85.3076 22.2278 83.7999 21.7953L80.7415 20.8869C80.0522 20.6707 78.5015 20.1949 77.8553 19.6326C77.123 19.027 76.9507 18.2052 76.9507 17.4266C76.9507 16.7345 77.08 15.9127 77.7261 15.1774C78.5876 14.2258 79.7938 14.0528 80.6984 14.0528C81.9476 14.0528 83.2399 14.3556 84.2307 14.8746C85.1784 15.3937 86.3414 16.3885 87.0737 17.2536L90.3475 13.1445C89.0552 11.8036 87.8491 10.9818 87.3753 10.679C85.0922 9.25162 82.9814 8.86233 80.3538 8.86233C77.8553 8.86233 75.0123 9.25162 72.8154 11.3278C70.5754 13.4905 70.3169 16.2155 70.3169 18.0754C70.3169 19.5028 70.5754 21.579 71.9539 23.3091C73.2892 24.996 75.3138 25.7746 76.6492 26.2504L79.2769 27.1587C80.6553 27.6345 81.9907 27.8941 82.8522 28.6294C83.843 29.4512 83.9722 30.4028 83.9722 31.3111C83.9722 32.1329 83.7999 32.9115 83.0676 33.6901C81.9907 34.8147 80.483 34.9877 79.2338 34.9877C78.1569 34.9877 77.123 34.8147 75.9169 34.2956C74.5815 33.7333 72.9015 32.652 71.7385 31.6139L68.4647 35.896Z" fill="white"/>
<path d="M108.987 18.2917V33.5171C108.599 33.9064 107.996 34.4687 107.479 34.8147C106.618 35.4202 105.756 35.6798 104.895 35.6798C104.033 35.6798 103.258 35.5068 102.655 34.8579C101.836 34.0361 101.836 33.171 101.836 32.2627V18.2917H95.547V31.7437C95.547 33.5603 95.5901 35.9826 97.787 38.1452C99.3808 39.7024 101.319 40.1782 103.258 40.1782C104.593 40.1782 106.359 39.9187 107.695 39.1833C108.513 38.7076 109.418 37.929 110.064 37.1937V39.6591H115.276V18.2917H108.987Z" fill="white"/>
<path d="M137.822 20.6707C136.875 19.8921 135.841 19.2433 134.635 18.7242C132.825 17.9457 131.49 17.7726 129.422 17.7726C127.57 17.7726 125.632 17.9889 123.909 19.2865C122.875 20.0651 121.41 21.7087 121.41 24.7365C121.41 26.5532 122.013 27.721 122.487 28.3699C123.822 30.273 125.847 30.7488 127.958 31.1814C129.681 31.5274 130.844 31.7004 131.447 32.2627C131.835 32.652 131.921 33.0845 131.921 33.5603C131.921 33.9929 131.792 34.5552 131.232 35.031C130.585 35.5933 129.681 35.6798 129.121 35.6798C127.785 35.6798 126.665 35.4202 125.718 35.0742C124.512 34.6417 123.564 34.1659 122.616 33.3441L120.032 36.9341C121.065 37.756 122.616 38.7508 123.822 39.2266C125.287 39.8321 127.527 40.1782 129.121 40.1782C132.912 40.1782 135.065 38.8806 136.185 37.8425C137.865 36.2853 138.382 34.4254 138.382 32.8683C138.382 30.9218 137.607 29.5377 136.659 28.6294C135.238 27.2885 133.385 26.8127 131.576 26.4667C130.327 26.2072 128.776 26.1207 128.087 25.3421C127.915 25.1258 127.699 24.7365 127.699 24.1742C127.699 23.6119 127.828 23.1794 128.345 22.7901C128.862 22.3576 129.336 22.2711 130.025 22.2711C131.275 22.2711 132.265 22.5738 133.256 23.0496C134.031 23.4389 134.807 23.9147 135.41 24.3905L137.822 20.6707Z" fill="white"/>
<path d="M149.418 39.6591V23.9147C149.806 23.5687 150.323 23.2226 150.71 23.0064C151.486 22.5738 152.39 22.2711 153.338 22.2711C154.759 22.2711 155.492 22.8334 155.75 23.0929C156.569 23.8714 156.569 24.7798 156.569 25.6881V39.6591H162.858V26.2072C162.858 24.477 162.858 21.8818 160.575 19.8056C159.455 18.7675 157.516 17.7726 154.458 17.7726C153.036 17.7726 151.356 18.0322 149.418 19.1568V7.65122H143.129V39.6591H149.418Z" fill="white"/>
<path d="M167.695 18.2917V23.0496H170.151V39.6591H176.44V18.2917H167.695ZM169.591 12.1496C169.591 14.2258 171.228 15.8695 173.295 15.8695C175.363 15.8695 177 14.2258 177 12.1496C177 10.0734 175.363 8.42979 173.295 8.42979C171.228 8.42979 169.591 10.0734 169.591 12.1496Z" fill="white"/>
<defs>
<linearGradient id="paint0_linear_1957_5544" x1="62.8976" y1="-4.8152" x2="66.5889" y2="31.4501" gradientUnits="userSpaceOnUse">
<stop stop-color="#03B8FF"/>
<stop offset="1" stop-color="#FA52A0"/>
</linearGradient>
<linearGradient id="paint1_linear_1957_5544" x1="64.6201" y1="-4.87047" x2="69.6757" y2="41.4984" gradientUnits="userSpaceOnUse">
<stop stop-color="#03B8FF"/>
<stop offset="1" stop-color="#FA52A0"/>
</linearGradient>
<linearGradient id="paint2_linear_1957_5544" x1="50.8424" y1="-21.2361" x2="55.8174" y2="24.8408" gradientUnits="userSpaceOnUse">
<stop stop-color="#03B8FF"/>
<stop offset="1" stop-color="#FA52A0"/>
</linearGradient>
</defs>
</svg>
