<svg width="258" height="55" viewBox="0 0 258 55" fill="none" xmlns="http://www.w3.org/2000/svg">
<g clip-path="url(#clip0_1945_7044)">
<path d="M34.8002 23.5208H29.0479V17.9678H46.9123V23.5208H41.2314V41.7363H34.8002V23.5208Z" fill="white"/>
<path d="M69.256 17.9678V41.7363H62.8248V32.5047H56.1435V41.7363H49.7837V17.9678H56.1435V27.0578H62.8248V17.9678H69.256Z" fill="white"/>
<path d="M83.1452 42.1962C79.5008 42.1962 76.8688 41.2176 75.2491 39.2605C73.6532 37.3033 72.8552 34.2026 72.8552 29.9582C72.8552 25.6667 73.6532 22.5187 75.2491 20.5144C76.845 18.5102 79.477 17.5081 83.1452 17.5081C86.8134 17.5081 89.4454 18.5102 91.0413 20.5144C92.6376 22.5187 93.4354 25.6548 93.4354 29.9228C93.4354 34.0022 92.6495 37.0675 91.0771 39.1189C89.5049 41.1704 86.8611 42.1962 83.1452 42.1962ZM83.1452 36.7492C84.0742 36.7492 84.8006 36.5252 85.3247 36.0772C85.8725 35.6055 86.2656 34.8864 86.5037 33.9196C86.7419 32.9292 86.8611 31.597 86.8611 29.9228C86.8611 27.4234 86.587 25.6431 86.0392 24.582C85.4914 23.4973 84.5267 22.955 83.1452 22.955C81.7875 22.955 80.8229 23.4973 80.2511 24.582C79.7033 25.6667 79.4294 27.4587 79.4294 29.9582C79.4294 32.1747 79.6676 33.8607 80.144 35.0161C80.6204 36.1715 81.6207 36.7492 83.1452 36.7492Z" fill="white"/>
<path d="M97.1316 17.9678H106.743C109.744 17.9678 111.995 18.6633 113.495 20.0546C115.02 21.4458 115.783 23.4972 115.783 26.2089C115.783 28.9206 114.806 31.1961 112.852 33.0353L115.461 41.7363H108.494L106.743 34.5562H103.492V41.7363H97.1316V17.9678ZM106.85 29.18C107.613 29.18 108.195 28.897 108.601 28.3311C109.03 27.7416 109.244 27.0342 109.244 26.2089C109.244 25.4072 109.006 24.7234 108.529 24.1575C108.076 23.5915 107.481 23.3085 106.743 23.3085H103.492V29.18H106.85Z" fill="white"/>
<path d="M126.681 42.2315C124.632 42.2315 122.299 41.8896 119.678 41.2058L118.392 40.9228L119.035 36.1125C122.18 36.537 124.609 36.7492 126.324 36.7492C128.182 36.7492 129.111 36.1125 129.111 34.8392C129.111 34.3912 128.897 34.0375 128.468 33.7782C128.063 33.5187 127.456 33.2358 126.645 32.9292C126.122 32.7406 125.74 32.5873 125.502 32.4694C122.811 31.5734 120.893 30.5477 119.75 29.3923C118.631 28.2369 118.071 26.7867 118.071 25.0418C118.071 22.5659 118.833 20.6913 120.357 19.418C121.881 18.1447 123.954 17.5081 126.574 17.5081C127.646 17.5081 128.658 17.5787 129.611 17.7203C130.587 17.8617 132.362 18.1682 134.935 18.6399L134.435 23.5209C131.338 23.1672 128.956 22.9904 127.288 22.9904C125.335 22.9904 124.359 23.5209 124.359 24.582C124.359 24.9357 124.597 25.2422 125.073 25.5016C125.55 25.7374 126.3 26.044 127.324 26.4212C128.373 26.7985 129.051 27.0579 129.361 27.1993C130.933 27.836 132.148 28.4608 133.006 29.0739C133.863 29.6634 134.482 30.3826 134.864 31.2315C135.244 32.0804 135.435 33.1533 135.435 34.4502C135.435 36.1007 135.042 37.5156 134.256 38.6945C133.493 39.85 132.446 40.7342 131.112 41.3473C129.802 41.9368 128.325 42.2315 126.681 42.2315Z" fill="white"/>
<path d="M142.685 23.5208H136.933V17.9678H154.797V23.5208H149.116V41.7363H142.685V23.5208Z" fill="white"/>
<path d="M168.486 38.6944H161.482L161.019 41.7363H154.587L159.196 17.9678H170.772L175.382 41.7363H168.95L168.486 38.6944ZM165.771 23.1317H164.198L162.555 33.2475H167.414L165.771 23.1317Z" fill="white"/>
<path d="M178.219 17.9678H187.83C190.832 17.9678 193.083 18.6633 194.583 20.0546C196.108 21.4458 196.871 23.4972 196.871 26.2089C196.871 28.9206 195.893 31.1961 193.94 33.0353L196.548 41.7363H189.582L187.83 34.5562H184.58V41.7363H178.219V17.9678ZM187.938 29.18C188.701 29.18 189.283 28.897 189.689 28.3311C190.118 27.7416 190.332 27.0342 190.332 26.2089C190.332 25.4072 190.094 24.7234 189.617 24.1575C189.164 23.5915 188.569 23.3085 187.83 23.3085H184.58V29.18H187.938Z" fill="white"/>
<path d="M204.547 23.5208H198.795V17.9678H216.66V23.5208H210.979V41.7363H204.547V23.5208Z" fill="white"/>
<path d="M225.891 23.4501V27.1639H233.537V32.5401H225.891V36.2539H235.681V41.7363H219.531V17.9678H235.681V23.4501H225.891Z" fill="white"/>
<path d="M239.35 17.9678H248.961C251.962 17.9678 254.213 18.6633 255.714 20.0546C257.238 21.4458 258 23.4972 258 26.2089C258 28.9206 257.024 31.1961 255.07 33.0353L257.679 41.7363H250.711L248.961 34.5562H245.709V41.7363H239.35V17.9678ZM249.068 29.18C249.83 29.18 250.414 28.897 250.819 28.3311C251.247 27.7416 251.462 27.0342 251.462 26.2089C251.462 25.4072 251.223 24.7234 250.748 24.1575C250.295 23.5915 249.699 23.3085 248.961 23.3085H245.709V29.18H249.068Z" fill="white"/>
<path d="M0 31.3022L19.2936 0L11.544 24.0514H20.5441L1.42916 55L9.11089 31.3022H0Z" fill="#28DBD1"/>
</g>
<defs>
<clipPath id="clip0_1945_7044">
<rect width="258" height="55" fill="white"/>
</clipPath>
</defs>
</svg>
