<svg width="1440" height="444" viewBox="0 0 1440 444" fill="none" xmlns="http://www.w3.org/2000/svg">
<path d="M1294.78 298.12C1285.18 228.52 1345.44 204.787 1376.78 201.62C1506.28 201.62 1483.28 -42.3799 1331.78 32.6201C1180.28 107.62 1209.78 25.1201 1053.28 2.62015C896.776 -19.8798 896.777 164.12 948.777 201.62C1000.78 239.12 1095.78 186.62 1113.28 298.12C1130.78 409.62 1162.78 437.62 1224.78 442.62C1286.78 447.62 1306.78 385.12 1294.78 298.12Z" stroke="#E18833"/>
<path d="M195.776 256.12C92.2854 104.051 -9.00001 338.833 -78.5 340.5C-101.277 248.5 -71.3235 153.22 64.2765 89.6202C233.776 10.1202 374.776 159.12 409.776 256.12C444.776 353.12 276 374 195.776 256.12Z" stroke="#E18833"/>
</svg>
