<svg width="390" height="993" viewBox="0 0 390 993" fill="none" xmlns="http://www.w3.org/2000/svg">
<path d="M667.459 153.675C662.525 117.945 693.503 105.761 709.61 104.135C776.176 104.135 764.354 -21.1259 686.478 17.3765C608.603 55.8789 623.767 13.5263 543.321 1.97556C462.876 -9.57515 462.876 84.8841 489.605 104.135C516.335 123.387 565.167 96.4348 574.163 153.675C583.159 210.915 599.607 225.29 631.477 227.856C663.347 230.423 673.628 198.338 667.459 153.675Z" stroke="#E18833"/>
<path d="M102.542 132.114C49.3442 54.0468 -2.71937 174.576 -38.4443 175.431C-50.1521 128.202 -34.7554 79.2885 34.9468 46.6384C122.075 5.82585 194.553 82.3173 212.544 132.114C230.535 181.91 143.779 192.629 102.542 132.114Z" stroke="#E18833"/>
<path d="M292 404C292 441.279 261.779 471.5 224.5 471.5C205.817 471.5 175.266 463.916 149.381 451.632C136.443 445.492 124.702 438.192 116.204 430.106C107.7 422.015 102.5 413.193 102.5 404C102.5 394.807 107.7 385.985 116.204 377.894C124.702 369.808 136.443 362.508 149.381 356.368C175.266 344.084 205.817 336.5 224.5 336.5C261.779 336.5 292 366.721 292 404Z" stroke="#E18833"/>
<path d="M345.445 885.26C338.375 833.947 382.759 816.449 405.834 814.115C501.205 814.115 484.266 634.224 372.694 689.519C261.122 744.813 282.847 683.989 167.592 667.401C52.3377 650.813 52.3378 786.468 90.6333 814.115C128.929 841.762 198.892 803.056 211.779 885.26C224.667 967.464 248.234 988.107 293.894 991.794C339.554 995.48 354.283 949.401 345.445 885.26Z" stroke="#E18833"/>
<path d="M-463.915 854.295C-540.131 742.181 -614.722 915.276 -665.906 916.505C-682.68 848.677 -660.621 778.432 -560.758 731.542C-435.929 672.93 -332.09 782.781 -306.314 854.295C-280.538 925.809 -404.834 941.203 -463.915 854.295Z" stroke="#E18833"/>
</svg>
