<svg width="1130" height="757" viewBox="0 0 1130 757" fill="none" xmlns="http://www.w3.org/2000/svg">
<circle cx="100" cy="688" r="69" fill="url(#paint0_radial_0_1)" fill-opacity="0.4"/>
<circle cx="61.5" cy="172.5" r="144.5" fill="url(#paint1_radial_0_1)" fill-opacity="0.5"/>
<circle cx="985.5" cy="529.5" r="144.5" fill="url(#paint2_radial_0_1)" fill-opacity="0.5"/>
<circle cx="701.5" cy="144.5" r="144.5" fill="url(#paint3_radial_0_1)" fill-opacity="0.5"/>
<path d="M129.149 709.921C127.074 709.921 125.117 709.137 123.669 707.649L118.502 702.48C117.68 701.658 116.584 701.227 115.449 701.227C114.275 701.227 113.218 701.697 112.396 702.48L107.23 707.649C105.781 709.098 103.824 709.921 101.75 709.921C99.6754 709.921 97.7184 709.137 96.2702 707.649C94.8219 706.2 94 704.242 94 702.167C94 700.091 94.8219 698.133 96.2702 696.684L101.437 691.515C102.259 690.693 102.689 689.596 102.689 688.46C102.689 687.286 102.22 686.189 101.437 685.406L96.2702 680.236C93.2563 677.221 93.2563 672.287 96.2702 669.271C97.7184 667.822 99.6754 667 101.75 667C103.824 667 105.781 667.822 107.23 669.271L112.396 674.441C113.218 675.263 114.314 675.694 115.449 675.694C116.623 675.694 117.719 675.263 118.502 674.441L123.669 669.271C125.117 667.822 127.074 667 129.149 667C131.223 667 133.18 667.822 134.628 669.271C137.642 672.287 137.642 677.221 134.628 680.236L129.462 685.406C128.64 686.228 128.209 687.325 128.209 688.46C128.209 689.635 128.64 690.732 129.462 691.515L134.628 696.684C136.077 698.133 136.898 700.091 136.898 702.167C136.898 704.242 136.077 706.2 134.628 707.649C133.18 709.098 131.223 709.921 129.149 709.921ZM115.449 696.88C117.759 696.88 119.95 697.781 121.594 699.425L126.761 704.595C127.387 705.221 128.248 705.574 129.149 705.574C130.049 705.574 130.91 705.221 131.536 704.595C132.162 703.968 132.515 703.107 132.515 702.206C132.515 701.305 132.162 700.444 131.536 699.817L126.37 694.648C124.726 693.003 123.825 690.81 123.825 688.499C123.825 686.189 124.726 683.996 126.37 682.351L131.536 677.182C132.867 675.85 132.867 673.697 131.536 672.365C130.91 671.739 130.049 671.386 129.149 671.386C128.248 671.386 127.387 671.739 126.761 672.365L121.594 677.534C119.95 679.179 117.798 680.08 115.449 680.08C113.14 680.08 110.948 679.179 109.304 677.534L104.137 672.365C103.511 671.739 102.65 671.386 101.75 671.386C100.85 671.386 99.9885 671.739 99.3623 672.365C98.0315 673.697 98.0315 675.85 99.3623 677.182L104.529 682.351C106.173 683.996 107.073 686.15 107.073 688.499C107.073 690.81 106.173 693.003 104.529 694.648L99.3623 699.817C98.736 700.444 98.3838 701.305 98.3838 702.206C98.3838 703.107 98.736 703.968 99.3623 704.595C99.9885 705.221 100.85 705.574 101.75 705.574C102.65 705.574 103.511 705.221 104.137 704.595L109.304 699.425C110.948 697.781 113.14 696.88 115.449 696.88Z" fill="url(#paint4_linear_0_1)"/>
<path fill-rule="evenodd" clip-rule="evenodd" d="M115.449 683.526C118.189 683.526 120.381 685.758 120.381 688.46C120.381 691.202 118.189 693.395 115.449 693.395C112.709 693.395 110.518 691.162 110.518 688.46C110.518 685.758 112.709 683.526 115.449 683.526Z" fill="url(#paint5_linear_0_1)"/>
<defs>
<radialGradient id="paint0_radial_0_1" cx="0" cy="0" r="1" gradientUnits="userSpaceOnUse" gradientTransform="translate(100 688) rotate(90) scale(69)">
<stop stop-color="#E18933"/>
<stop offset="0.0001" stop-color="#E18833"/>
<stop offset="1" stop-color="#BE3B31" stop-opacity="0"/>
</radialGradient>
<radialGradient id="paint1_radial_0_1" cx="0" cy="0" r="1" gradientUnits="userSpaceOnUse" gradientTransform="translate(61.5 172.5) rotate(90) scale(144.5)">
<stop stop-color="#E18933"/>
<stop offset="0.0001" stop-color="#E18833"/>
<stop offset="1" stop-color="#BE3B31" stop-opacity="0"/>
</radialGradient>
<radialGradient id="paint2_radial_0_1" cx="0" cy="0" r="1" gradientUnits="userSpaceOnUse" gradientTransform="translate(985.5 529.5) rotate(90) scale(144.5)">
<stop stop-color="#FFEB00"/>
<stop offset="0.0001" stop-color="#E18833"/>
<stop offset="1" stop-color="#BE3B31" stop-opacity="0"/>
</radialGradient>
<radialGradient id="paint3_radial_0_1" cx="0" cy="0" r="1" gradientUnits="userSpaceOnUse" gradientTransform="translate(701.5 144.5) rotate(90) scale(144.5)">
<stop stop-color="#E18933"/>
<stop offset="0.0001" stop-color="#E18833"/>
<stop offset="1" stop-color="#BE3B31" stop-opacity="0"/>
</radialGradient>
<linearGradient id="paint4_linear_0_1" x1="94.0168" y1="688.471" x2="136.884" y2="688.471" gradientUnits="userSpaceOnUse">
<stop stop-color="#FF9100"/>
<stop offset="1" stop-color="#FF4D00"/>
</linearGradient>
<linearGradient id="paint5_linear_0_1" x1="110.51" y1="688.47" x2="120.391" y2="688.47" gradientUnits="userSpaceOnUse">
<stop stop-color="#FF9100"/>
<stop offset="1" stop-color="#FF4D00"/>
</linearGradient>
</defs>
</svg>
