<svg width="276" height="276" viewBox="0 0 276 276" fill="none" xmlns="http://www.w3.org/2000/svg">
<circle cx="138" cy="138" r="138" fill="url(#paint0_radial_0_1)" fill-opacity="0.4"/>
<path d="M131.273 198.738C124.458 198.738 118.102 196.102 113.293 191.333L96.3579 174.389C93.6818 171.712 90.1275 170.247 86.2805 170.247C82.4753 170.247 78.8793 171.712 76.2031 174.389L59.268 191.333C54.5011 196.102 48.1034 198.738 41.3294 198.738C34.5554 198.738 28.1577 196.102 23.3908 191.333C18.6657 186.564 16.0314 180.163 16.0314 173.343C16.0314 166.524 18.6657 160.165 23.4326 155.395L40.3677 138.452C43.0438 135.774 44.5074 132.218 44.5074 128.369C44.5074 124.562 43.0438 120.964 40.3677 118.286L23.4326 101.343C13.5225 91.4274 13.5225 75.3203 23.4326 65.405C28.1995 60.6357 34.5972 58 41.3712 58C48.1871 58 54.5429 60.6357 59.3099 65.405L76.2449 82.3488C78.9211 85.0264 82.4753 86.4907 86.3223 86.4907C90.1275 86.4907 93.7236 85.0264 96.3997 82.3488L113.335 65.405C118.102 60.6357 124.499 58 131.315 58C138.089 58 144.487 60.6357 149.254 65.405C159.164 75.3203 159.164 91.4274 149.254 101.343L132.319 118.286C129.643 120.964 128.179 124.52 128.179 128.369C128.179 132.176 129.643 135.774 132.319 138.452L149.254 155.395C154.021 160.165 156.655 166.566 156.655 173.343C156.655 180.163 154.021 186.522 149.254 191.291C144.445 196.102 138.089 198.738 131.273 198.738ZM86.3641 155.981C93.9745 155.981 101.125 158.952 106.519 164.307L123.454 181.209C125.545 183.3 128.346 184.43 131.315 184.43C134.284 184.43 137.086 183.3 139.176 181.209C141.267 179.117 142.396 176.314 142.396 173.343C142.396 170.373 141.225 167.57 139.176 165.478L122.241 148.534C116.889 143.179 113.92 136.025 113.92 128.369C113.92 120.755 116.889 113.601 122.241 108.204L139.176 91.26C143.525 86.909 143.525 79.8386 139.176 75.4876C137.086 73.3958 134.284 72.2663 131.315 72.2663C128.346 72.2663 125.545 73.4377 123.454 75.4876L106.519 92.4315C101.167 97.7865 94.0163 100.757 86.3641 100.757C78.7538 100.757 71.6035 97.7865 66.2093 92.4315L49.2743 75.4876C47.1835 73.3958 44.3819 72.2663 41.4131 72.2663C38.4442 72.2663 35.6426 73.4377 33.5518 75.4876C29.2031 79.8386 29.2031 86.9091 33.5518 91.2182L50.4869 108.162C55.8392 113.517 58.8081 120.671 58.8081 128.327C58.8081 135.941 55.8392 143.095 50.4869 148.492L33.5518 165.436C31.4611 167.528 30.3321 170.331 30.3321 173.302C30.3321 176.272 31.4611 179.075 33.5518 181.167C35.6426 183.259 38.4442 184.388 41.4131 184.388C44.3819 184.388 47.1835 183.259 49.2743 181.167L66.2093 164.223C71.5616 158.952 78.712 155.981 86.3641 155.981Z" fill="url(#paint1_linear_0_1)"/>
<path fill-rule="evenodd" clip-rule="evenodd" d="M86.3641 112.178C95.3125 112.178 102.588 119.458 102.588 128.411C102.588 137.364 95.3125 144.643 86.3641 144.643C77.4157 144.643 70.1399 137.364 70.1399 128.411C70.1399 119.458 77.3739 112.178 86.3641 112.178Z" fill="url(#paint2_linear_0_1)"/>
<defs>
<radialGradient id="paint0_radial_0_1" cx="0" cy="0" r="1" gradientUnits="userSpaceOnUse" gradientTransform="translate(138 138) rotate(90) scale(138)">
<stop stop-color="#E18933"/>
<stop offset="0.0001" stop-color="#E18833"/>
<stop offset="1" stop-color="#BE3B31" stop-opacity="0"/>
</radialGradient>
<linearGradient id="paint1_linear_0_1" x1="16.0314" y1="128.405" x2="156.662" y2="128.405" gradientUnits="userSpaceOnUse">
<stop stop-color="#FF9100"/>
<stop offset="1" stop-color="#FF4D00"/>
</linearGradient>
<linearGradient id="paint2_linear_0_1" x1="70.1407" y1="128.407" x2="102.555" y2="128.407" gradientUnits="userSpaceOnUse">
<stop stop-color="#FF9100"/>
<stop offset="1" stop-color="#FF4D00"/>
</linearGradient>
</defs>
</svg>
