<svg width="43" height="43" viewBox="0 0 43 43" fill="none" xmlns="http://www.w3.org/2000/svg">
<path d="M35.1486 42.9207C33.0741 42.9207 31.117 42.1374 29.6688 40.6493L24.5022 35.48C23.6803 34.6576 22.5843 34.2269 21.4492 34.2269C20.275 34.2269 19.2182 34.6968 18.3962 35.48L13.2296 40.6493C11.7814 42.0983 9.82436 42.9207 7.74989 42.9207C5.67542 42.9207 3.71837 42.1374 2.27015 40.6493C0.821937 39.2003 0 37.2423 0 35.1668C0 33.0912 0.821937 31.1331 2.27015 29.6842L7.43676 24.5149C8.25872 23.6925 8.68927 22.596 8.68927 21.4604C8.68927 20.2855 8.21958 19.189 7.43676 18.4058L2.27015 13.2365C-0.743701 10.2211 -0.743701 5.28676 2.27015 2.27135C3.71837 0.822391 5.67542 0 7.74989 0C9.82436 0 11.7814 0.822391 13.2296 2.27135L18.3962 7.44066C19.2182 8.26304 20.3141 8.69378 21.4492 8.69378C22.6235 8.69378 23.7194 8.26304 24.5022 7.44066L29.6688 2.27135C31.117 0.822391 33.0741 0 35.1486 0C37.223 0 39.1801 0.822391 40.6283 2.27135C43.6422 5.28676 43.6422 10.2211 40.6283 13.2365L35.4617 18.4058C34.6397 19.2282 34.2092 20.3247 34.2092 21.4604C34.2092 22.6352 34.6397 23.7317 35.4617 24.5149L40.6283 29.6842C42.0765 31.1331 42.8985 33.0912 42.8985 35.1668C42.8985 37.2423 42.0765 39.2003 40.6283 40.6493C39.1801 42.0983 37.223 42.9207 35.1486 42.9207ZM21.4492 29.88C23.7585 29.88 25.9504 30.7807 27.5944 32.4254L32.761 37.5947C33.3872 38.2213 34.2483 38.5738 35.1486 38.5738C36.0488 38.5738 36.9099 38.2213 37.5362 37.5947C38.1624 36.9682 38.5147 36.1066 38.5147 35.2059C38.5147 34.3052 38.1624 33.4436 37.5362 32.8171L32.3696 27.6478C30.7256 26.003 29.8254 23.81 29.8254 21.4995C29.8254 19.189 30.7256 16.9959 32.3696 15.3512L37.5362 10.1819C38.867 8.85045 38.867 6.6966 37.5362 5.36512C36.9099 4.73854 36.0488 4.38609 35.1486 4.38609C34.2483 4.38609 33.3872 4.73854 32.761 5.36512L27.5944 10.5344C25.9504 12.1791 23.7977 13.0799 21.4492 13.0799C19.1399 13.0799 16.948 12.1791 15.3041 10.5344L10.1375 5.36512C9.51124 4.73854 8.65014 4.38609 7.74989 4.38609C6.84965 4.38609 5.98855 4.73854 5.36229 5.36512C4.0315 6.6966 4.0315 8.85045 5.36229 10.1819L10.5289 15.3512C12.1728 16.9959 13.0731 19.1498 13.0731 21.4995C13.0731 23.81 12.1728 26.003 10.5289 27.6478L5.36229 32.8171C4.73604 33.4436 4.38377 34.3052 4.38377 35.2059C4.38377 36.1066 4.73604 36.9682 5.36229 37.5947C5.98855 38.2213 6.84965 38.5738 7.74989 38.5738C8.65014 38.5738 9.51124 38.2213 10.1375 37.5947L15.3041 32.4254C16.948 30.7807 19.1399 29.88 21.4492 29.88Z" fill="url(#paint0_linear_0_1)"/>
<path fill-rule="evenodd" clip-rule="evenodd" d="M21.4493 16.5259C24.1892 16.5259 26.3811 18.7581 26.3811 21.4602C26.3811 24.2015 24.1892 26.3945 21.4493 26.3945C18.7095 26.3945 16.5176 24.1623 16.5176 21.4602C16.5176 18.7581 18.7095 16.5259 21.4493 16.5259Z" fill="url(#paint1_linear_0_1)"/>
<defs>
<linearGradient id="paint0_linear_0_1" x1="0.0168306" y1="21.4705" x2="42.884" y2="21.4705" gradientUnits="userSpaceOnUse">
<stop stop-color="#FF9100"/>
<stop offset="1" stop-color="#FF4D00"/>
</linearGradient>
<linearGradient id="paint1_linear_0_1" x1="16.5097" y1="21.4704" x2="26.3905" y2="21.4704" gradientUnits="userSpaceOnUse">
<stop stop-color="#FF9100"/>
<stop offset="1" stop-color="#FF4D00"/>
</linearGradient>
</defs>
</svg>
